<?xml version="1.0" encoding="UTF-8" standalone="no"?>
<!DOCTYPE svg PUBLIC "-//W3C//DTD SVG 1.1//EN"
 "http://www.w3.org/Graphics/SVG/1.1/DTD/svg11.dtd">
<!-- Generated by graphviz version 12.2.1 (20241206.2353)
 -->
<!-- Pages: 1 -->
<svg width="398pt" height="395pt"
 viewBox="36.00 36.00 322.55 319.10" xmlns="http://www.w3.org/2000/svg" xmlns:xlink="http://www.w3.org/1999/xlink">
<g id="graph0" class="graph" transform="scale(1.11111 1.11111) rotate(0) translate(72 283.1)">
<polygon fill="white" stroke="none" points="-36,36 -36,-247.1 250.55,-247.1 250.55,36 -36,36"/>
<!-- Solistice -->
<g id="node1" class="node">
<title>Solistice</title>
<text text-anchor="start" x="32.27" y="-181.4" font-family="Times New Roman,serif" font-size="14.00">[PIC]</text>
<text text-anchor="start" x="24.02" y="-156.15" font-family="Times New Roman,serif" font-size="14.00">Solistice</text>
</g>
<!-- Pewpew -->
<g id="node2" class="node">
<title>Pewpew</title>
<text text-anchor="start" x="24.27" y="-49.6" font-family="Times New Roman,serif" font-size="14.00">[PIC]</text>
<text text-anchor="start" x="16.4" y="-24.35" font-family="Times New Roman,serif" font-size="14.00">Pewpew</text>
</g>
<!-- Solistice&#45;&gt;Pewpew -->
<g id="edge1" class="edge">
<title>Solistice&#45;&gt;Pewpew</title>
<path fill="none" stroke="black" stroke-width="1.2" d="M41.13,-124.15C40.8,-120.65 40.51,-117.17 40.27,-113.8 39.68,-105.08 39.33,-95.76 39.14,-86.79"/>
<polygon fill="black" stroke="black" stroke-width="1.2" points="39.03,-124.24 41.74,-130 43.21,-123.81 39.03,-124.24"/>
<polygon fill="black" stroke="black" stroke-width="1.2" points="41.24,-86.81 39.04,-80.84 37.04,-86.88 41.24,-86.81"/>
<text text-anchor="middle" x="59.77" y="-100.5" font-family="Times New Roman,serif" font-size="14.00">Sibling</text>
</g>
<!-- Serious -->
<g id="node3" class="node">
<title>Serious</title>
<text text-anchor="start" x="133.28" y="-49.6" font-family="Times New Roman,serif" font-size="14.00">[PIC]</text>
<text text-anchor="start" x="128.03" y="-24.35" font-family="Times New Roman,serif" font-size="14.00">Serious</text>
</g>
<!-- Solistice&#45;&gt;Serious -->
<g id="edge2" class="edge">
<title>Solistice&#45;&gt;Serious</title>
<path fill="none" stroke="black" stroke-width="1.2" d="M77.3,-131.86C88.8,-117.08 102.01,-100.11 113.88,-84.85"/>
<polygon fill="black" stroke="black" stroke-width="1.2" points="115.39,-86.33 117.42,-80.3 112.08,-83.75 115.39,-86.33"/>
<text text-anchor="middle" x="123.32" y="-100.5" font-family="Times New Roman,serif" font-size="14.00">Partner</text>
</g>
<!-- Makermeow -->
<g id="node4" class="node">
<title>Makermeow</title>
<text text-anchor="start" x="148.28" y="-181.4" font-family="Times New Roman,serif" font-size="14.00">[PIC]</text>
<text text-anchor="start" x="128.4" y="-156.15" font-family="Times New Roman,serif" font-size="14.00">Makermeow</text>
</g>
<!-- Makermeow&#45;&gt;Serious -->
<g id="edge3" class="edge">
<title>Makermeow&#45;&gt;Serious</title>
<path fill="none" stroke="black" stroke-width="1.2" d="M157.93,-124.24C156.51,-111.93 154.98,-98.65 153.56,-86.37"/>
<polygon fill="black" stroke="black" stroke-width="1.2" points="155.83,-124.33 158.61,-130.05 160,-123.85 155.83,-124.33"/>
<polygon fill="black" stroke="black" stroke-width="1.2" points="155.68,-86.39 152.9,-80.67 151.5,-86.88 155.68,-86.39"/>
<text text-anchor="middle" x="173.92" y="-100.5" font-family="Times New Roman,serif" font-size="14.00">Parent</text>
</g>
</g>
</svg>
