<?xml version="1.0" encoding="UTF-8" standalone="no"?>
<!DOCTYPE svg PUBLIC "-//W3C//DTD SVG 1.1//EN"
 "http://www.w3.org/Graphics/SVG/1.1/DTD/svg11.dtd">
<!-- Generated by graphviz version 12.2.1 (20241206.2353)
 -->
<!-- Pages: 1 -->
<svg width="519pt" height="395pt"
 viewBox="36.00 36.00 430.93 319.10" xmlns="http://www.w3.org/2000/svg" xmlns:xlink="http://www.w3.org/1999/xlink">
<g id="graph0" class="graph" transform="scale(1.11111 1.11111) rotate(0) translate(72 283.1)">
<polygon fill="white" stroke="none" points="-36,36 -36,-247.1 358.93,-247.1 358.93,36 -36,36"/>
<!-- Solistice -->
<g id="node1" class="node">
<title>Solistice</title>
<text text-anchor="start" x="28.28" y="-181.4" font-family="Times New Roman,serif" font-size="14.00">[PIC]</text>
<text text-anchor="start" x="20.03" y="-156.15" font-family="Times New Roman,serif" font-size="14.00">Solistice</text>
</g>
<!-- Pewpew -->
<g id="node2" class="node">
<title>Pewpew</title>
<text text-anchor="start" x="24.28" y="-49.6" font-family="Times New Roman,serif" font-size="14.00">[PIC]</text>
<text text-anchor="start" x="16.4" y="-24.35" font-family="Times New Roman,serif" font-size="14.00">Pewpew</text>
</g>
<!-- Solistice&#45;&gt;Pewpew -->
<g id="edge1" class="edge">
<title>Solistice&#45;&gt;Pewpew</title>
<path fill="none" stroke="black" stroke-width="1.2" d="M14.16,-125C12.62,-121.31 11.29,-117.55 10.28,-113.8 7.85,-104.84 8.76,-95.47 11.4,-86.56"/>
<polygon fill="black" stroke="black" stroke-width="1.2" points="12.21,-125.78 16.61,-130.36 16.03,-124.03 12.21,-125.78"/>
<polygon fill="black" stroke="black" stroke-width="1.2" points="13.38,-87.27 13.39,-80.91 9.42,-85.87 13.38,-87.27"/>
<text text-anchor="middle" x="29.78" y="-100.5" font-family="Times New Roman,serif" font-size="14.00">Sibling</text>
</g>
<!-- Solistice&#45;&gt;Pewpew -->
<g id="edge3" class="edge">
<title>Solistice&#45;&gt;Pewpew</title>
<path fill="none" stroke="black" stroke-width="1.2" d="M49.43,-124.33C49.96,-115.37 50.04,-106.04 49.28,-97.3 48.98,-93.91 48.58,-90.41 48.12,-86.9"/>
<polygon fill="black" stroke="black" stroke-width="1.2" points="47.34,-124.15 49,-130.29 51.53,-124.46 47.34,-124.15"/>
<polygon fill="black" stroke="black" stroke-width="1.2" points="50.21,-86.67 47.27,-81.03 46.05,-87.27 50.21,-86.67"/>
<text text-anchor="middle" x="82.09" y="-100.5" font-family="Times New Roman,serif" font-size="14.00">Neighbouur</text>
</g>
<!-- Baka -->
<g id="node3" class="node">
<title>Baka</title>
<text text-anchor="start" x="147.28" y="-181.4" font-family="Times New Roman,serif" font-size="14.00">[PIC]</text>
<text text-anchor="start" x="148.4" y="-156.15" font-family="Times New Roman,serif" font-size="14.00">Baka</text>
</g>
<!-- Serious -->
<g id="node4" class="node">
<title>Serious</title>
<text text-anchor="start" x="147.28" y="-49.6" font-family="Times New Roman,serif" font-size="14.00">[PIC]</text>
<text text-anchor="start" x="142.03" y="-24.35" font-family="Times New Roman,serif" font-size="14.00">Serious</text>
</g>
<!-- Baka&#45;&gt;Serious -->
<g id="edge2" class="edge">
<title>Baka&#45;&gt;Serious</title>
<path fill="none" stroke="black" stroke-width="1.2" d="M162.28,-124.24C162.28,-111.93 162.28,-98.65 162.28,-86.37"/>
<polygon fill="black" stroke="black" stroke-width="1.2" points="160.18,-124.04 162.28,-130.04 164.38,-124.04 160.18,-124.04"/>
<polygon fill="black" stroke="black" stroke-width="1.2" points="164.38,-86.69 162.28,-80.69 160.18,-86.69 164.38,-86.69"/>
<text text-anchor="middle" x="179.53" y="-100.5" font-family="Times New Roman,serif" font-size="14.00">Parent</text>
</g>
<!-- Troublemeow -->
<g id="node5" class="node">
<title>Troublemeow</title>
<text text-anchor="start" x="253.27" y="-181.4" font-family="Times New Roman,serif" font-size="14.00">[PIC]</text>
<text text-anchor="start" x="230.02" y="-156.15" font-family="Times New Roman,serif" font-size="14.00">Troublemeow</text>
</g>
<!-- Makermeow -->
<g id="node6" class="node">
<title>Makermeow</title>
<text text-anchor="start" x="253.27" y="-49.6" font-family="Times New Roman,serif" font-size="14.00">[PIC]</text>
<text text-anchor="start" x="233.4" y="-24.35" font-family="Times New Roman,serif" font-size="14.00">Makermeow</text>
</g>
<!-- Troublemeow&#45;&gt;Makermeow -->
<g id="edge4" class="edge">
<title>Troublemeow&#45;&gt;Makermeow</title>
<path fill="none" stroke="black" stroke-width="1.2" d="M268.27,-124.24C268.27,-111.93 268.27,-98.65 268.27,-86.37"/>
<polygon fill="black" stroke="black" stroke-width="1.2" points="266.18,-124.04 268.28,-130.04 270.38,-124.04 266.18,-124.04"/>
<polygon fill="black" stroke="black" stroke-width="1.2" points="270.38,-86.69 268.28,-80.69 266.18,-86.69 270.38,-86.69"/>
<text text-anchor="middle" x="285.9" y="-100.5" font-family="Times New Roman,serif" font-size="14.00">Friend</text>
</g>
</g>
</svg>
