<?xml version="1.0" encoding="UTF-8" standalone="no"?>
<!DOCTYPE svg PUBLIC "-//W3C//DTD SVG 1.1//EN"
 "http://www.w3.org/Graphics/SVG/1.1/DTD/svg11.dtd">
<!-- Generated by graphviz version 12.2.1 (20241206.2353)
 -->
<!-- Pages: 1 -->
<svg width="457pt" height="541pt"
 viewBox="36.00 36.00 375.35 450.90" xmlns="http://www.w3.org/2000/svg" xmlns:xlink="http://www.w3.org/1999/xlink">
<g id="graph0" class="graph" transform="scale(1.11111 1.11111) rotate(0) translate(72 414.9)">
<polygon fill="white" stroke="none" points="-36,36 -36,-378.9 303.35,-378.9 303.35,36 -36,36"/>
<!-- Sleppymeow -->
<g id="node1" class="node">
<title>Sleppymeow</title>
<text text-anchor="start" x="100.21" y="-313.2" font-family="Times New Roman,serif" font-size="14.00">[PIC]</text>
<text text-anchor="start" x="79.59" y="-287.95" font-family="Times New Roman,serif" font-size="14.00">Sleppymeow</text>
</g>
<!-- Serious -->
<g id="node2" class="node">
<title>Serious</title>
<text text-anchor="start" x="27.21" y="-181.4" font-family="Times New Roman,serif" font-size="14.00">[PIC]</text>
<text text-anchor="start" x="21.96" y="-156.15" font-family="Times New Roman,serif" font-size="14.00">Serious</text>
</g>
<!-- Sleppymeow&#45;&gt;Serious -->
<g id="edge1" class="edge">
<title>Sleppymeow&#45;&gt;Serious</title>
<path fill="none" stroke="black" stroke-width="1.2" d="M63.29,-289.08C40.97,-280.56 17.05,-266.94 3.96,-245.6 -1.41,-236.84 -0.77,-227.24 2.94,-217.97"/>
<polygon fill="black" stroke="black" stroke-width="1.2" points="4.82,-218.91 5.53,-212.6 1.03,-217.09 4.82,-218.91"/>
<text text-anchor="middle" x="21.59" y="-232.3" font-family="Times New Roman,serif" font-size="14.00">Friend</text>
</g>
<!-- Sleppymeow&#45;&gt;Serious -->
<g id="edge5" class="edge">
<title>Sleppymeow&#45;&gt;Serious</title>
<path fill="none" stroke="black" stroke-width="1.2" d="M74.66,-263.63C70.01,-257.91 65.7,-251.83 62.21,-245.6 57.55,-237.26 53.93,-227.76 51.12,-218.44"/>
<polygon fill="black" stroke="black" stroke-width="1.2" points="53.18,-217.99 49.54,-212.78 49.13,-219.12 53.18,-217.99"/>
<text text-anchor="middle" x="81.71" y="-232.3" font-family="Times New Roman,serif" font-size="14.00">Sibling</text>
</g>
<!-- Baka -->
<g id="node3" class="node">
<title>Baka</title>
<text text-anchor="start" x="148.21" y="-49.6" font-family="Times New Roman,serif" font-size="14.00">[PIC]</text>
<text text-anchor="start" x="149.34" y="-24.35" font-family="Times New Roman,serif" font-size="14.00">Baka</text>
</g>
<!-- Sleppymeow&#45;&gt;Baka -->
<g id="edge2" class="edge">
<title>Sleppymeow&#45;&gt;Baka</title>
<path fill="none" stroke="black" stroke-width="1.2" d="M115.37,-263.89C116.22,-229.05 119.26,-176.43 129.21,-131.8 132.63,-116.5 138.04,-100.31 143.54,-85.89"/>
<polygon fill="black" stroke="black" stroke-width="1.2" points="145.36,-87.01 145.58,-80.66 141.45,-85.49 145.36,-87.01"/>
<text text-anchor="middle" x="159.21" y="-166.4" font-family="Times New Roman,serif" font-size="14.00">Best friend</text>
</g>
<!-- Sleppymeow&#45;&gt;Baka -->
<g id="edge4" class="edge">
<title>Sleppymeow&#45;&gt;Baka</title>
<path fill="none" stroke="black" stroke-width="1.2" d="M156.18,-263.81C169.36,-248.78 182.33,-230.5 189.21,-211.1 203.65,-170.41 193.57,-121.46 182.01,-86.48"/>
<polygon fill="black" stroke="black" stroke-width="1.2" points="184.05,-85.95 180.12,-80.95 180.07,-87.31 184.05,-85.95"/>
<text text-anchor="middle" x="205.73" y="-166.4" font-family="Times New Roman,serif" font-size="14.00">son</text>
</g>
<!-- Sleppymeow&#45;&gt;Baka -->
<g id="edge6" class="edge">
<title>Sleppymeow&#45;&gt;Baka</title>
<path fill="none" stroke="black" stroke-width="1.2" d="M167.14,-272.69C188.15,-257.43 209.67,-236.62 219.21,-211.1 237.15,-163.14 227.36,-141.33 201.21,-97.3 198.97,-93.52 196.57,-89.64 194.12,-85.77"/>
<polygon fill="black" stroke="black" stroke-width="1.2" points="195.95,-84.73 190.94,-80.82 192.42,-87 195.95,-84.73"/>
<text text-anchor="middle" x="247.85" y="-166.4" font-family="Times New Roman,serif" font-size="14.00">Partner</text>
</g>
<!-- Serious&#45;&gt;Baka -->
<g id="edge3" class="edge">
<title>Serious&#45;&gt;Baka</title>
<path fill="none" stroke="black" stroke-width="1.2" d="M48.57,-132.13C51.99,-120.05 57.22,-107.27 65.21,-97.3 80.72,-77.96 104.73,-63.92 125.11,-54.66"/>
<polygon fill="black" stroke="black" stroke-width="1.2" points="125.83,-56.64 130.48,-52.31 124.14,-52.79 125.83,-56.64"/>
<text text-anchor="middle" x="83.21" y="-100.5" font-family="Times New Roman,serif" font-size="14.00">couple</text>
</g>
</g>
</svg>
