<?xml version="1.0" encoding="UTF-8" standalone="no"?>
<!DOCTYPE svg PUBLIC "-//W3C//DTD SVG 1.1//EN"
 "http://www.w3.org/Graphics/SVG/1.1/DTD/svg11.dtd">
<!-- Generated by graphviz version 12.2.1 (20241206.2353)
 -->
<!-- Pages: 1 -->
<svg width="281pt" height="541pt"
 viewBox="36.00 36.00 217.30 450.90" xmlns="http://www.w3.org/2000/svg" xmlns:xlink="http://www.w3.org/1999/xlink">
<g id="graph0" class="graph" transform="scale(1.11111 1.11111) rotate(0) translate(72 414.9)">
<polygon fill="white" stroke="none" points="-36,36 -36,-378.9 145.3,-378.9 145.3,36 -36,36"/>
<!-- Troublemeow -->
<g id="node1" class="node">
<title>Troublemeow</title>
<text text-anchor="start" x="39.65" y="-313.2" font-family="Times New Roman,serif" font-size="14.00">[PIC]</text>
<text text-anchor="start" x="16.4" y="-287.95" font-family="Times New Roman,serif" font-size="14.00">Troublemeow</text>
</g>
<!-- Solistice -->
<g id="node2" class="node">
<title>Solistice</title>
<text text-anchor="start" x="39.65" y="-181.4" font-family="Times New Roman,serif" font-size="14.00">[PIC]</text>
<text text-anchor="start" x="31.4" y="-156.15" font-family="Times New Roman,serif" font-size="14.00">Solistice</text>
</g>
<!-- Troublemeow&#45;&gt;Solistice -->
<g id="edge1" class="edge">
<title>Troublemeow&#45;&gt;Solistice</title>
<path fill="none" stroke="black" stroke-width="1.2" d="M54.65,-263.66C54.65,-249.4 54.65,-233.11 54.65,-218.28"/>
<polygon fill="black" stroke="black" stroke-width="1.2" points="56.75,-218.49 54.65,-212.49 52.55,-218.49 56.75,-218.49"/>
<text text-anchor="middle" x="71.9" y="-232.3" font-family="Times New Roman,serif" font-size="14.00">Parent</text>
</g>
<!-- Serious -->
<g id="node3" class="node">
<title>Serious</title>
<text text-anchor="start" x="39.65" y="-49.6" font-family="Times New Roman,serif" font-size="14.00">[PIC]</text>
<text text-anchor="start" x="34.4" y="-24.35" font-family="Times New Roman,serif" font-size="14.00">Serious</text>
</g>
<!-- Solistice&#45;&gt;Serious -->
<g id="edge2" class="edge">
<title>Solistice&#45;&gt;Serious</title>
<path fill="none" stroke="black" stroke-width="1.2" d="M54.65,-124.24C54.65,-111.93 54.65,-98.65 54.65,-86.37"/>
<polygon fill="black" stroke="black" stroke-width="1.2" points="52.55,-124.04 54.65,-130.04 56.75,-124.04 52.55,-124.04"/>
<polygon fill="black" stroke="black" stroke-width="1.2" points="56.75,-86.69 54.65,-80.69 52.55,-86.69 56.75,-86.69"/>
<text text-anchor="middle" x="80.9" y="-100.5" font-family="Times New Roman,serif" font-size="14.00">Offspring</text>
</g>
</g>
</svg>
